<svg width="16" height="16" viewBox="0 0 16 16" fill="none" xmlns="http://www.w3.org/2000/svg">
	<path d="M8.07397 5.53589L5.46362 9.53589H10.6424L8.07397 5.53589Z" fill="#606060" />
	<path fill-rule="evenodd" clip-rule="evenodd" d="M12.6667 3.99992C13.0349 3.99992 13.3334 3.70144 13.3334 3.33325C13.3334 2.96506 13.0349 2.66659 12.6667 2.66659C12.2986 2.66659 12.0001 2.96506 12.0001 3.33325C12.0001 3.70144 12.2986 3.99992 12.6667 3.99992ZM12.6667 5.33325C13.7713 5.33325 14.6667 4.43782 14.6667 3.33325C14.6667 2.22868 13.7713 1.33325 12.6667 1.33325C11.5622 1.33325 10.6667 2.22868 10.6667 3.33325C10.6667 4.43782 11.5622 5.33325 12.6667 5.33325Z" fill="#606060" />
	<path fill-rule="evenodd" clip-rule="evenodd" d="M3.05566 2.94468C3.18088 2.77014 3.38254 2.66663 3.59735 2.66663H11.5002V3.99996H3.93956L2.76129 5.64236L3.94453 7.33329H8V8.66663H3.59735C3.37977 8.66663 3.17588 8.56045 3.05113 8.38218L1.39804 6.01977C1.23579 5.78791 1.23761 5.47888 1.40257 5.24894L3.05566 2.94468Z" fill="#606060" />
	<path fill-rule="evenodd" clip-rule="evenodd" d="M7.33325 7.33325H12.3333C12.5516 7.33325 12.7562 7.44021 12.8808 7.61957L14.6032 10.0991C14.7614 10.3267 14.7622 10.6285 14.6052 10.857L12.952 13.2628C12.8277 13.4438 12.6222 13.5519 12.4026 13.5519H3.8584V12.2186H12.0518L13.2454 10.4815L11.9846 8.66659H7.33325V7.33325Z" fill="#606060" />
	<path fill-rule="evenodd" clip-rule="evenodd" d="M3.7777 12.2222H2.55547V13.4444H3.7777V12.2222ZM1.33325 11V14.6667H4.99992V11H1.33325Z" fill="#606060" />
</svg>
