<svg width="16" height="16" viewBox="0 0 16 16" fill="none" xmlns="http://www.w3.org/2000/svg">
  <path fill-rule="evenodd" clip-rule="evenodd" d="M4 1L3 2V14L4 15H13L14 14V5L13.7071 4.29289L10.7071 1.29289L10 1H4ZM4 14V2L9 2V6H13V14H4ZM13 5L10 2V5L13 5Z" fill="#C5C5C5"/>
  <g transform="translate(4.25 4.25) scale(0.0255)" fill="#0DC09D">
    <path d="M124.774 171.079C164.224 173.699 195.834 205.388 198.314 244.877H244.384C241.824 179.918 189.704 127.7 124.774 125V171.079Z"/>
    <path d="M198.574 255.388C195.954 294.837 164.264 326.446 124.774 328.926V374.994C189.734 372.434 241.954 320.316 244.654 255.388H198.574Z"/>
    <path d="M300.97 244.607C303.59 205.158 335.28 173.549 374.77 171.069V125C309.81 127.56 257.591 179.678 254.891 244.607H300.97Z"/>
    <path d="M374.774 328.921C335.325 326.301 303.715 294.612 301.235 255.123H255.165C257.725 320.081 309.845 372.3 374.774 375V328.921Z"/>
  </g>
</svg>
