<?xml version="1.0" encoding="UTF-8" standalone="no"?>
<svg
   viewBox="0 0 500 500"
   version="1.1"
   id="svg4"
   sodipodi:docname="nextflow-log.svg"
   inkscape:version="1.3.2 (091e20e, 2023-11-25)"
   xmlns:inkscape="http://www.inkscape.org/namespaces/inkscape"
   xmlns:sodipodi="http://sodipodi.sourceforge.net/DTD/sodipodi-0.dtd"
   xmlns="http://www.w3.org/2000/svg"
   xmlns:svg="http://www.w3.org/2000/svg">
  <defs
     id="defs4" />
  <sodipodi:namedview
     id="namedview4"
     pagecolor="#505050"
     bordercolor="#eeeeee"
     borderopacity="1"
     inkscape:showpageshadow="0"
     inkscape:pageopacity="0"
     inkscape:pagecheckerboard="0"
     inkscape:deskcolor="#505050"
     inkscape:zoom="1.132"
     inkscape:cx="250"
     inkscape:cy="250"
     inkscape:window-width="1848"
     inkscape:window-height="1243"
     inkscape:window-x="203"
     inkscape:window-y="233"
     inkscape:window-maximized="0"
     inkscape:current-layer="svg4" />
  <!-- Faded Nextflow logo in the background -->
  <path
     d="M 346.66992,64.488281 H 495.61914 V 6.1953125 C 438.8436,8.4663342 387.12858,30.069919 346.66992,64.488281 Z"
     style="fill:#0dc09d"
     id="path11" />
  <path
     d="M 5,6 V 64.488281 H 153.61328 C 113.25241,30.020715 61.652936,8.3569018 5,6 Z"
     style="fill:#0dc09d"
     id="path10" />
  <!-- LOG badge -->
  <path
     d="m 244.50195,144.42773 c -19.11599,0 -34.23307,5.55925 -45.35156,16.67774 -11.11848,11.11848 -16.67773,27.01688 -16.67773,47.69336 v 90.70312 c 0,20.67648 5.55925,36.57292 16.67773,47.69141 11.11849,11.11848 26.23557,16.67773 45.35156,16.67773 19.116,0 34.23308,-5.55925 45.35157,-16.67773 11.11848,-11.11849 16.67773,-27.01493 16.67773,-47.69141 v -90.99609 c 0,-20.48142 -5.55925,-36.28191 -16.67773,-47.40039 -11.11849,-11.11849 -26.23557,-16.67774 -45.35157,-16.67774 z m 182.72461,0 c -12.87403,0 -24.08849,2.43793 -33.64648,7.31446 -9.36294,4.87653 -16.67866,11.89853 -21.94531,21.0664 -5.07159,9.16788 -7.60743,20.18847 -7.60743,33.0625 v 96.55664 c 0,12.67898 2.53584,23.69957 7.60743,33.0625 5.26665,9.16788 12.58237,16.18988 21.94531,21.06641 9.55799,4.87653 20.77245,7.31445 33.64648,7.31445 12.87404,0 23.99254,-2.43792 33.35547,-7.31445 9.36294,-5.07159 16.58076,-12.1915 21.65234,-21.35937 5.07159,-9.36294 7.60743,-20.28562 7.60743,-32.76954 v -53.25195 h -69.63672 v 23.99219 h 43.30469 v 29.25976 c 0,12.0938 -3.21924,21.45582 -9.65625,28.08789 -6.24196,6.63208 -15.11835,9.94922 -26.62696,9.94922 -11.50861,0 -20.57886,-3.31714 -27.21094,-9.94922 -6.43701,-6.63207 -9.65429,-15.99409 -9.65429,-28.08789 v -96.84765 c 0,-12.09379 3.21728,-21.35986 9.65429,-27.79688 6.63208,-6.43701 15.70233,-9.65625 27.21094,-9.65625 11.50861,0 20.385,3.31714 26.62696,9.94922 6.43701,6.43702 9.65625,15.70113 9.65625,27.79492 h 26.33203 c 0,-12.67897 -2.53584,-23.60165 -7.60743,-32.76953 -5.07158,-9.16787 -12.2894,-16.18988 -21.65234,-21.0664 -9.36293,-5.07159 -20.48143,-7.60743 -33.35547,-7.60743 z M 13.205078,147.35352 V 360.94531 H 136.09375 V 336.95312 H 39.539062 v -189.5996 z m 231.296872,20.77343 c 11.50861,0 20.28709,3.31714 26.33399,9.94922 6.24195,6.43702 9.36133,15.70113 9.36133,27.79492 v 96.55664 c 0,12.0938 -3.11938,21.45582 -9.36133,28.08789 -6.0469,6.43702 -14.82538,9.65625 -26.33399,9.65625 -11.31354,0 -20.09202,-3.21923 -26.33398,-9.65625 -6.24196,-6.63207 -9.36328,-15.99409 -9.36328,-28.08789 v -96.55664 c 0,-12.09379 3.12132,-21.3579 9.36328,-27.79492 6.24196,-6.63208 15.02044,-9.94922 26.33398,-9.94922 z"
     style="font-weight:900;font-size:292.592px;font-family:'-apple-system', BlinkMacSystemFont, 'Segoe UI', Helvetica, sans-serif;letter-spacing:6;text-anchor:middle;fill:#31c9ac;stroke-width:3.25102"
     id="path14" />
  <path
     d="M 495.61914,435.51172 H 343.76172 c 40.81869,36.10822 93.67504,58.88415 151.85742,61.30469 z"
     style="fill:#0dc09d;stroke-width:7.40756;paint-order:stroke fill markers"
     id="path12" />
  <path
     d="M 157.21094,435.51172 H 5 v 61.10742 c 58.311618,-2.33247 111.29064,-25.04666 152.21094,-61.10742 z"
     style="fill:#0dc09d;stroke-width:7.40756;paint-order:stroke fill markers"
     id="path13" />
</svg>
