<svg viewBox="102 102 296 296" fill="none" xmlns="http://www.w3.org/2000/svg">
<path d="M124.774 171.079C164.224 173.699 195.834 205.388 198.314 244.877H244.384C241.824 179.918 189.704 127.7 124.774 125V171.079Z" fill="#0DC09D"/>
<path d="M198.574 255.388C195.954 294.837 164.264 326.446 124.774 328.926V374.994C189.734 372.434 241.954 320.316 244.654 255.388H198.574Z" fill="#0DC09D"/>
<path d="M300.97 244.607C303.59 205.158 335.28 173.549 374.77 171.069V125C309.81 127.56 257.591 179.678 254.891 244.607H300.97Z" fill="#0DC09D"/>
<path d="M374.774 328.921C335.325 326.301 303.715 294.612 301.235 255.123H255.165C257.725 320.081 309.845 372.3 374.774 375V328.921Z" fill="#0DC09D"/>
</svg>
