<?xml version="1.0" encoding="utf-8"?>
<!-- Generator: Adobe Illustrator 28.3.0, SVG Export Plug-In . SVG Version: 6.00 Build 0) -->
<svg version="1.1" id="Layer_1" xmlns="http://www.w3.org/2000/svg" xmlns:xlink="http://www.w3.org/1999/xlink" x="0px" y="0px" viewBox="0 0 500 500" style="enable-background:new 0 0 500 500;" xml:space="preserve">
	<style type="text/css">
		.st0{clip-path:url(#SVGID_00000008851599869703188070000015022423873083401116_);}
		.st1{fill:#FFFFFF;}
	</style>
	<g>
		<defs>
			<rect id="SVGID_1_" x="125" y="125" width="250" height="250" />
		</defs>
		<clipPath id="SVGID_00000121962216385390264380000012199335084043949246_">
			<use xlink:href="#SVGID_1_" style="overflow:visible;" />
		</clipPath>
		<g style="clip-path:url(#SVGID_00000121962216385390264380000012199335084043949246_);">
			<path class="st1" d="M375,333l-0.1-0.9l-0.1-0.8l-0.1-0.9l-0.1-0.9l-0.1-0.8l-0.1-0.9l-0.1-0.8l-0.2-0.9l-0.2-0.8l-0.2-0.8
			l-0.2-0.8l-0.2-0.8l-0.2-0.8l-0.3-0.8l-0.3-0.8l-0.3-0.8l-0.3-0.8l-0.4-0.8l-0.4-0.8l-0.4-0.8l-0.4-0.8l-0.4-0.8l-0.4-0.8
			l-0.4-0.7l-0.5-0.7l-0.5-0.7l-0.5-0.7l-0.5-0.7l-0.5-0.7l-0.5-0.7l-0.5-0.7L365,308l-0.6-0.6l-0.6-0.6l-0.6-0.6l-0.6-0.6L362,305
			l-0.6-0.6l-0.7-0.6l-0.6-0.5l-1.2,0.7l-0.8,0.5l-0.8,0.4l-0.8,0.4l-0.8,0.4l-0.8,0.4l-0.9,0.4l-0.9,0.4l-0.9,0.3l-0.9,0.3
			l-0.9,0.3l-0.9,0.3l-0.9,0.3l-0.9,0.3l-0.9,0.2l-0.9,0.2l-0.9,0.2l-0.9,0.2l-0.9,0.2l-0.9,0.1l-0.9,0.1l-0.9,0.1l-0.9,0.1
			l-0.9,0.1l-0.9,0.1l-0.9,0.1l-0.9,0l-0.9,0h-57.5l59.7,16.4l0.4,0.1l0.4,0.1l0.4,0.1l0.3,0.2l0.3,0.2l0.3,0.2l0.3,0.2l0.3,0.2
			l0.3,0.2l0.3,0.2l0.3,0.2l0.3,0.3l0.2,0.3l0.2,0.3l0.2,0.3l0.2,0.3l0.2,0.3l0.2,0.3l0.2,0.3l0.1,0.3l0.1,0.3l0.1,0.4l0.1,0.4
			l0.1,0.4l0.1,0.4l0,0.4l0,0.4l0,0.4l0,0.4l0,0.4l0,0.4l-0.1,0.4l-0.1,0.4l-0.1,0.4l-0.1,0.3l-0.1,0.4l-0.1,0.3l-0.2,0.3l-0.2,0.3
			l-0.2,0.3l-0.2,0.3l-0.2,0.3l-0.2,0.3l-0.2,0.3l-0.3,0.3l-0.3,0.3l-0.3,0.2l-0.3,0.2l-0.3,0.2l-0.3,0.2l-0.3,0.2l-0.3,0.2
			l-0.3,0.1l-0.4,0.2l-0.4,0.1l-0.3,0.1l-0.4,0.1l-0.4,0.1l-0.4,0.1l-0.4,0l-0.4,0l-0.4,0H125V375h209.7l0.9,0l0.9,0l0.9,0l0.8-0.1
			l0.9-0.1l0.8-0.1l0.9-0.1l0.8-0.1l0.8-0.1l0.8-0.2l0.8-0.2l0.8-0.2l0.8-0.2l0.8-0.2l0.8-0.3l0.8-0.3l0.8-0.3l0.8-0.3l0.8-0.3
			l0.8-0.4l0.8-0.4l0.8-0.4l0.8-0.4l0.8-0.4l0.7-0.4l0.7-0.5l0.7-0.5l0.7-0.5l0.7-0.5l0.7-0.5l0.7-0.5l0.7-0.5l0.7-0.5l0.7-0.5
			l0.6-0.6l0.6-0.6l0.6-0.6l0.6-0.6l0.6-0.6l0.6-0.6l0.6-0.7l0.5-0.7l0.5-0.7l0.5-0.7l0.5-0.7l0.5-0.7l0.5-0.7l0.5-0.7l0.4-0.7
			l0.4-0.8l0.4-0.8l0.4-0.8l0.4-0.8l0.4-0.8l0.4-0.8l0.3-0.8l0.3-0.8l0.3-0.8l0.3-0.8l0.2-0.8l0.2-0.8l0.2-0.8l0.2-0.8l0.2-0.8
			l0.2-0.8l0.1-0.8l0.1-0.9l0.1-0.9l0.1-0.8l0.1-0.9l0.1-0.9l0.1-0.8l0-0.9l0-0.9l0-0.8L375,333z" />
			<path class="st1" d="M375,260.4l-0.1-0.9l-0.1-0.9l-0.1-0.8l-0.1-0.9l-0.1-0.8l-0.1-0.8l-0.1-0.8l-0.2-0.8l-0.2-0.8l-0.2-0.8
			l-0.2-0.8l-0.2-0.8l-0.2-0.8l-0.3-0.8l-0.3-0.8l-0.3-0.8l-0.3-0.8l-0.4-0.8l-0.4-0.8l-0.4-0.8l-0.4-0.8l-0.4-0.8l-0.4-0.7
			l-0.4-0.7l-0.5-0.7l-0.5-0.7l-0.5-0.7l-0.5-0.7l-0.2-0.2h0h-89.8l59.7,16.4l0.4,0.1l0.4,0.1l0.4,0.1l0.3,0.2l0.3,0.2l0.3,0.2
			l0.3,0.2l0.3,0.2l0.3,0.2l0.3,0.2l0.3,0.2l0.3,0.3l0.2,0.3l0.2,0.3l0.2,0.3l0.2,0.3l0.2,0.3l0.2,0.3l0.2,0.3l0.1,0.4l0.1,0.3
			l0.1,0.4l0.1,0.4l0.1,0.4l0.1,0.4l0,0.4l0,0.4l0,0.4l0,0.4l0,0.4l0,0.4l-0.1,0.4l-0.1,0.4l-0.1,0.4l-0.1,0.4l-0.1,0.3l-0.1,0.4
			l-0.2,0.4l-0.2,0.3l-0.2,0.3l-0.2,0.3l-0.2,0.3l-0.2,0.3l-0.2,0.3l-0.3,0.3l-0.3,0.3l-0.3,0.2l-0.3,0.2l-0.3,0.2l-0.3,0.2
			l-0.3,0.2l-0.3,0.2l-0.3,0.2l-0.4,0.2l-0.4,0.1l-0.3,0.1l-0.4,0.1l-0.4,0.1l-0.4,0.1l-0.4,0l-0.4,0l-0.4,0h-82.5h-111H125v32.2
			h122.8h86.9h0.9l0.9,0l0.9-0.1l0.8-0.1l0.9-0.1l0.8-0.1l0.9-0.1l0.8-0.1l0.8-0.2l0.8-0.2l0.8-0.2l0.8-0.2l0.8-0.2l0.8-0.2l0.8-0.3
			l0.8-0.3l0.8-0.3l0.8-0.3l0.8-0.3l0.8-0.4l0.8-0.4l0.2-0.1l0.6-0.3l0.8-0.4l0.8-0.4l0.7-0.4l0.7-0.4l0.7-0.5l0.7-0.5l0.7-0.5
			l0.7-0.5l0.7-0.5l0.7-0.5l0.7-0.5l0.7-0.6l0.6-0.6l0.6-0.6l0.6-0.6l0.6-0.6l0.6-0.6l0.6-0.6l0.6-0.6l0.5-0.7l0.5-0.7l0.5-0.7
			l0.5-0.7l0.5-0.7l0.5-0.7l0.5-0.7l0.4-0.7l0.4-0.7l0.4-0.8l0.4-0.8l0.4-0.8l0.4-0.8l0.4-0.8l0.3-0.8l0.3-0.8l0.3-0.8l0.3-0.8
			l0.2-0.8l0.2-0.8l0.2-0.8l0.2-0.8l0.2-0.8l0.2-0.8l0.1-0.8l0.1-0.9l0.1-0.8l0.1-0.9l0.1-0.8l0.1-0.9l0.1-0.9l0-0.8l0-0.9l0-0.9
			L375,260.4z" />
			<path class="st1" d="M165.3,197.6l-0.9,0l-0.8,0l-0.9,0.1l-0.9,0.1l-0.8,0.1l-0.9,0.1l-0.8,0.1l-0.8,0.1l-0.8,0.2l-0.8,0.2
			l-0.8,0.2l-0.8,0.2l-0.8,0.2l-0.8,0.2l-0.8,0.3l-0.8,0.3l-0.8,0.3l-0.8,0.3l-0.8,0.3l-0.8,0.4l-0.8,0.4l-0.2,0.1l-0.6,0.3
			l-0.8,0.4l-0.8,0.4l-0.8,0.4l-0.7,0.4l-0.7,0.5l-0.7,0.5L142,205l-0.7,0.5l-0.7,0.5l-0.7,0.5l-0.7,0.5l-0.7,0.6l-0.6,0.6l-0.6,0.6
			l-0.6,0.6l-0.6,0.6l-0.6,0.6l-0.6,0.6l-0.6,0.7l-0.5,0.6l-0.5,0.7l-0.5,0.7l-0.5,0.7l-0.5,0.7l-0.5,0.7l-0.4,0.7l-0.5,0.7
			l-0.4,0.7l-0.4,0.8l-0.4,0.8l-0.4,0.8l-0.4,0.8l-0.3,0.8l-0.3,0.8l-0.3,0.8l-0.3,0.8l-0.3,0.8l-0.3,0.8l-0.2,0.8l-0.2,0.8
			l-0.2,0.8l-0.2,0.8l-0.2,0.8l-0.2,0.8l-0.1,0.9l-0.1,0.9l-0.1,0.8l-0.1,0.9l-0.1,0.9l0,0.9l0,0.9v0.9v0.9l0,0.8l0,0.9l0.1,0.8
			l0.1,0.8l0.1,0.9l0.1,0.9l0.1,0.8l0.2,0.9l0.2,0.8l0.2,0.8l0.2,0.8l0.2,0.8l0.2,0.8l0.3,0.8l0.3,0.8l0.3,0.8l0.3,0.8l0.3,0.8
			l0.3,0.8l0.4,0.8l0.4,0.8l0.4,0.8l0.4,0.8l0.4,0.7l0.5,0.7l0.4,0.7l0.5,0.7l0.5,0.7l0.5,0.7l0.2,0.2h89.8l-59.7-16.4l-0.4-0.1
			l-0.3-0.1l-0.4-0.1l-0.3-0.2l-0.3-0.2l-0.3-0.2l-0.3-0.2l-0.3-0.2l-0.3-0.2l-0.3-0.2l-0.3-0.2l-0.2-0.3l-0.2-0.3l-0.2-0.3
			l-0.2-0.3l-0.2-0.3l-0.2-0.3l-0.2-0.3l-0.2-0.3l-0.1-0.4l-0.1-0.4l-0.1-0.3l-0.1-0.4l-0.1-0.4l-0.1-0.4l0-0.4l0-0.4l0-0.4l0-0.4
			l0-0.4l0-0.4l0.1-0.4l0.1-0.4l0.1-0.4l0.1-0.4l0.1-0.4l0.1-0.3l0.2-0.3l0.2-0.3l0.2-0.3l0.2-0.3l0.2-0.3l0.2-0.3l0.2-0.3l0.2-0.3
			l0.3-0.3l0.3-0.2l0.3-0.2l0.3-0.2l0.3-0.2l0.3-0.2l0.3-0.2l0.3-0.2l0.4-0.2l0.3-0.1l0.4-0.1l0.4-0.1l0.4-0.1l0.4-0.1l0.4,0l0.4,0
			h0.4h82.5h111H375v-32.3H252.2H165.3z" />
			<path class="st1" d="M165.3,125l-0.9,0l-0.8,0l-0.9,0.1l-0.9,0.1l-0.8,0.1l-0.9,0.1l-0.8,0.1l-0.8,0.1l-0.8,0.2l-0.8,0.2l-0.8,0.2
			l-0.8,0.2l-0.8,0.2l-0.8,0.2l-0.8,0.3l-0.8,0.3l-0.8,0.3l-0.8,0.3l-0.8,0.3l-0.8,0.3l-0.8,0.4l-0.8,0.4l-0.8,0.4l-0.8,0.4
			l-0.8,0.4l-0.7,0.5l-0.7,0.4l-0.7,0.5l-0.7,0.5l-0.7,0.5l-0.7,0.5l-0.7,0.5l-0.7,0.6l-0.7,0.6l-0.6,0.6l-0.6,0.6l-0.6,0.6
			l-0.6,0.6l-0.6,0.6l-0.6,0.6l-0.6,0.6l-0.5,0.7l-0.5,0.7l-0.5,0.7l-0.5,0.7l-0.5,0.7l-0.5,0.7l-0.4,0.7l-0.5,0.7l-0.4,0.7
			l-0.4,0.8l-0.4,0.8l-0.4,0.8l-0.4,0.8l-0.3,0.8l-0.3,0.8l-0.3,0.8l-0.3,0.8l-0.3,0.8l-0.3,0.8l-0.2,0.8l-0.2,0.8l-0.2,0.8
			l-0.2,0.8l-0.2,0.8l-0.2,0.8l-0.1,0.9l-0.1,0.8l-0.1,0.9l-0.1,0.8l-0.1,0.9l0,0.9l0,0.9v0.9v0.9l0,0.9l0,0.8l0.1,0.9l0.1,0.9
			l0.1,0.8l0.1,0.8l0.1,0.8l0.2,0.8l0.2,0.8l0.2,0.8l0.2,0.8l0.2,0.8l0.2,0.8l0.3,0.8l0.3,0.8l0.3,0.8l0.3,0.8l0.3,0.8l0.3,0.8
			l0.4,0.8l0.4,0.8l0.4,0.8l0.4,0.8l0.4,0.7l0.5,0.7l0.4,0.7l0.5,0.7l0.5,0.7l0.5,0.7l0.5,0.7l0.5,0.7l0.5,0.7l0.6,0.6l0.6,0.6
			l0.6,0.6l0.6,0.6l0.6,0.6l0.6,0.6l0.6,0.6l0.7,0.6l0.6,0.5h0l1.1-0.7l0.8-0.5l0.8-0.5l0.8-0.4l0.8-0.4l0.9-0.4l0.9-0.4l0.9-0.4
			l0.9-0.3l0.9-0.3l0.9-0.3l0.9-0.3l0.9-0.3l0.9-0.3l0.9-0.2l0.9-0.2l0.9-0.2l0.9-0.2l0.9-0.2l0.9-0.1l0.9-0.1l0.9-0.1l0.9-0.1
			l0.9-0.1l0.9-0.1l0.9,0l0.9,0l0.9,0h57.5l-59.7-16.4l-0.4-0.1l-0.3-0.1l-0.4-0.1l-0.3-0.1l-0.3-0.2l-0.3-0.2l-0.3-0.2l-0.3-0.2
			l-0.3-0.2l-0.3-0.2l-0.3-0.3l-0.2-0.3l-0.2-0.3l-0.2-0.3l-0.2-0.3l-0.2-0.3l-0.2-0.3l-0.2-0.3l-0.2-0.3l-0.1-0.3l-0.1-0.4
			l-0.1-0.3l-0.1-0.4l-0.1-0.4l-0.1-0.4l0-0.4l0-0.4l0-0.4l0-0.4l0-0.4l0-0.4l0.1-0.4l0.1-0.4l0.1-0.4l0.1-0.4l0.1-0.4l0.1-0.3
			l0.2-0.3l0.2-0.3l0.2-0.3l0.2-0.3l0.2-0.3l0.2-0.3l0.2-0.3l0.2-0.3l0.3-0.2l0.3-0.2l0.3-0.2l0.3-0.2l0.3-0.2l0.3-0.2l0.3-0.2
			l0.3-0.2l0.4-0.1l0.3-0.1l0.4-0.1l0.4-0.1l0.4-0.1l0.4-0.1l0.4,0l0.4,0l0.4,0H375V125H165.3z" />
		</g>
	</g>
</svg>
